<?xml version="1.0" encoding="utf-8" ?>
<svg xmlns="http://www.w3.org/2000/svg" xmlns:xlink="http://www.w3.org/1999/xlink" width="500" height="500">
	<defs>
		<linearGradient id="gradient_0" gradientUnits="userSpaceOnUse" x1="408.26956" y1="407.9917" x2="91.487595" y2="91.758522">
			<stop offset="0" stop-color="#55B5EF"/>
			<stop offset="1" stop-color="#C8E1FB"/>
		</linearGradient>
	</defs>
	<path fill="url(#gradient_0)" d="M232.68 26.1903C356.341 16.6084 464.326 109.159 473.78 232.831C483.234 356.502 390.571 464.391 266.89 473.717C143.39 483.029 35.6932 390.532 26.2531 267.041C16.8131 143.55 109.199 35.7581 232.68 26.1903Z"/>
	<path d="M278.346 100.425C278.64 101.63 275.185 122.893 274.767 125.783C269.71 160.736 264.275 195.683 259.621 230.689C276.356 230.994 293.103 231.988 309.839 232.234C303.404 244.099 296.258 255.667 289.442 267.321L247.649 338.861C240.899 350.441 233.868 361.907 227.389 373.638L227.129 373.687C226.796 372.928 237.978 290.336 239.475 280.525L189.885 280.272C195.405 268.26 201.551 256.463 207.388 244.595L243.898 170.28L266.683 123.914L273.842 109.28C275.279 106.333 276.612 103.206 278.346 100.425Z"/>
</svg>
